<?xml version="1.0" encoding="UTF-8"?>
<svg width="94px" height="30px" viewBox="0 0 94 30" version="1.1" xmlns="http://www.w3.org/2000/svg" xmlns:xlink="http://www.w3.org/1999/xlink">
    <title>Group</title>
    <g id="Dashboard" stroke="none" stroke-width="1" fill="none" fill-rule="evenodd">
        <g id="account" transform="translate(-160.000000, -40.000000)">
            <g id="zeipt" transform="translate(160.000000, 40.000000)">
                <g id="Z-LOGO" transform="translate(0.000000, 4.351145)">
                    <g transform="translate(0.000000, 0.000027)" id="Fill-26">
                        <path d="M0.425273828,17.4019704 L7.08104863,5.66584866 C9.06700809,2.16400811 12.7820424,7.3952419e-16 16.8078246,0 L21.6046537,0 C22.1569385,1.20591542e-16 22.6046537,0.44771525 22.6046537,1 C22.6046537,1.17292358 22.5598122,1.34289204 22.4745072,1.49331021 L15.8187324,13.229432 C13.8327729,16.7312725 10.1177387,18.8952806 6.09195647,18.8952806 L1.29512728,18.8952806 C0.742842534,18.8952806 0.295127284,18.4475654 0.295127284,17.8952806 C0.295127284,17.722357 0.339968858,17.5523886 0.425273828,17.4019704 Z" fill="#3CBF71"></path>
                        <path d="M22.0689297,17.7629799 L22.0227477,17.8442834 C21.4701324,18.8171628 20.2334746,19.1578541 19.2605953,18.6052388 C18.626829,18.2452467 18.2352941,17.5725566 18.2352941,16.8436849 L18.2352941,11.1764706 L18.2352941,11.1764706 C20.6702768,11.1764706 22.6442203,13.1504141 22.6442203,15.5853968 C22.6442203,16.3488232 22.4459885,17.0991678 22.0689297,17.7629799 Z" id="Fill-28" fill="#0F2841" transform="translate(20.439757, 15.023203) scale(-1, -1) rotate(-360.000000) translate(-20.439757, -15.023203) "></path>
                        <path d="M3.83363559,6.58650933 L3.78745356,6.66781282 C3.23483826,7.64069217 1.99818051,7.9813835 1.02530116,7.4287682 C0.391534925,7.06877606 -7.98917378e-16,6.39608604 0,5.66721431 L0,0 L0,0 C2.4349827,-4.47299066e-16 4.4089262,1.97394349 4.4089262,4.4089262 C4.4089262,5.1723526 4.21069441,5.92269722 3.83363559,6.58650933 Z" id="Fill-28" fill="#0F2841"></path>
                    </g>
                </g>
                <path d="M45.5405164,22.2017701 C45.5405164,22.814855 45.0435129,23.3118586 44.4304279,23.3118586 L31.5875802,23.3118586 C30.9744953,23.3118586 30.4774917,22.814855 30.4774917,22.2017701 C30.4774917,21.4773066 30.6877384,20.7684122 31.0827231,20.1610949 L42.7510675,2.22017702 L42.7510675,2.22017702 L31.5875802,2.22017702 C30.9744953,2.22017702 30.4774917,1.72317347 30.4774917,1.11008851 C30.4774917,0.497003556 30.9744953,-1.09422726e-16 31.5875802,0 L44.4304279,0 C45.0435129,-1.02196567e-15 45.5405164,0.497003556 45.5405164,1.11008851 C45.5405164,1.83455194 45.3302698,2.54344635 44.9352851,3.15076369 L33.2669408,21.0916816 L33.2669408,21.0916816 L44.4304279,21.0916816 C45.0435129,21.0916816 45.5405164,21.5886851 45.5405164,22.2017701 Z" id="Rectangle-748" fill="#0F2841" fill-rule="nonzero"></path>
                <path d="M47.5137005,14.6965781 C47.7622677,18.422246 50.4923119,21.357042 53.8235294,21.357042 C55.1734509,21.357042 56.4246512,20.8751064 57.452005,20.0539032 C58.0671431,19.5621997 58.6020293,18.9488643 59.0298038,18.2445224 C59.0824453,18.1322181 59.1219264,18.0479899 59.1482471,17.9918377 C59.2394498,17.8984089 59.3266136,17.8046386 59.4097386,17.7105268 C59.8544515,17.207059 60.6231026,17.1594106 61.1265809,17.6041116 C61.3170456,17.772341 61.4500356,17.9960014 61.5068754,18.2436851 L61.5068754,18.2436851 L61.5068754,18.2436851 C60.8919224,19.6506694 59.9704728,20.8630768 58.838437,21.7748067 C57.430905,22.9084183 55.6978168,23.5771966 53.8235294,23.5771966 C49.1128654,23.5771966 45.2941176,19.352709 45.2941176,14.1415395 C45.2941176,8.93036991 49.1128654,4.70588235 53.8235294,4.70588235 C58.5341935,4.70588235 62.3529412,8.93036991 62.3529412,14.1415395 C62.3448659,14.4503978 62.0921651,14.6965781 61.7832011,14.6965781 L60.6928651,14.6965781 L60.6928651,14.6965781 L47.5137005,14.6965781 Z M47.6645928,12.4764235 L59.9824661,12.4764235 C59.3231926,9.29416486 56.8159086,6.92603693 53.8235294,6.92603693 C50.8311503,6.92603693 48.3238663,9.29416486 47.6645928,12.4764235 Z" id="Combined-Shape" fill="#0F2841" fill-rule="nonzero"></path>
                <path d="M66.1927027,4.38461538 C66.8089307,4.38461538 67.3084823,4.88416693 67.3084823,5.50039499 L67.3084823,22.14015 C67.3084823,22.756378 66.8089307,23.2559296 66.1927027,23.2559296 C65.5764746,23.2559296 65.0769231,22.756378 65.0769231,22.14015 L65.0769231,5.50039499 C65.0769231,4.88416693 65.5764746,4.38461538 66.1927027,4.38461538 Z" id="Rectangle-751" fill="#0F2841" fill-rule="nonzero"></path>
                <path d="M66.1050435,0 L66.1164481,0 C66.7295269,-5.56709953e-16 67.2265254,0.49699854 67.2265254,1.11007731 C67.2265254,1.72315608 66.7295269,2.22015462 66.1164481,2.22015462 L66.1050435,2.22015462 C65.4919647,2.22015462 64.9949662,1.72315608 64.9949662,1.11007731 C64.9949662,0.49699854 65.4919647,-1.09423862e-16 66.1050435,0 Z" id="Rectangle-751" fill="#3CBF71" fill-rule="nonzero"></path>
                <path d="M90.4061624,0 C91.0223904,-1.13199256e-16 91.5219419,0.499551535 91.5219419,1.11577958 L91.5218235,4.44 L92.6434239,4.44030924 C93.2565026,4.44030924 93.7535012,4.93730778 93.7535012,5.55038655 C93.7535012,6.16346532 93.2565026,6.66046386 92.6434239,6.66046386 L91.5218235,6.66 L91.5219419,20.629504 C91.5219419,20.8846402 91.7297722,21.0914689 91.9861437,21.0914689 L92.6434239,21.0914689 C93.2565027,21.0914689 93.7535012,21.5884674 93.7535012,22.2015462 C93.7535012,22.8146249 93.2565027,23.3116234 92.6434239,23.3116234 L91.5219419,23.3116234 C90.2894859,23.3116234 89.2903828,22.3173347 89.2903828,21.0908175 L89.2898235,6.66 L88.1689008,6.66046386 C87.5558221,6.66046386 87.0588235,6.16346532 87.0588235,5.55038655 C87.0588235,4.93730778 87.5558221,4.44030924 88.1689008,4.44030924 L89.2898235,4.44 L89.2903828,1.11577958 C89.2903828,0.499551535 89.7899343,1.13199256e-16 90.4061624,0 Z" id="Combined-Shape" fill="#0F2841" fill-rule="nonzero"></path>
                <path d="M70.6455577,4.44030924 C71.2617857,4.44030924 71.7613373,4.93986079 71.7613373,5.55608885 L71.7613373,28.8563077 C71.7613373,29.4725358 71.2617857,29.9720873 70.6455577,29.9720873 C70.0293296,29.9720873 69.5297781,29.4725358 69.5297781,28.8563077 L69.5297781,5.55608885 C69.5297781,4.93986079 70.0293296,4.44030924 70.6455577,4.44030924 Z" id="Rectangle-751" fill="#0F2841" fill-rule="nonzero"></path>
                <path d="M78.17707,23.3116234 C73.4013026,23.3116234 69.5297781,19.0871359 69.5297781,13.8759663 C69.5297781,8.6647968 73.4013026,4.44030924 78.17707,4.44030924 C82.9528375,4.44030924 86.824362,8.6647968 86.824362,13.8759663 C86.824362,19.0871359 82.9528375,23.3116234 78.17707,23.3116234 Z M78.17707,21.0914689 C81.7203814,21.0914689 84.5928028,17.8609783 84.5928028,13.8759663 C84.5928028,9.89095436 81.7203814,6.66046381 78.17707,6.66046381 C74.6337587,6.66046381 71.7613373,9.89095436 71.7613373,13.8759663 C71.7613373,17.8609783 74.6337587,21.0914689 78.17707,21.0914689 Z" id="Oval-36" fill="#0F2841" fill-rule="nonzero"></path>
            </g>
        </g>
    </g>
</svg>